<svg width="124" height="124" viewBox="0 0 124 124" fill="none" xmlns="http://www.w3.org/2000/svg">
<circle cx="62" cy="62" r="62" fill="#D9D9D9" fill-opacity="0.5"/>
<path d="M87.4375 78.6667C87.4375 79.7717 87.0622 80.8315 86.3941 81.6129C85.726 82.3943 84.8198 82.8333 83.875 82.8333H41.125C40.1802 82.8333 39.274 82.3943 38.6059 81.6129C37.9378 80.8315 37.5625 79.7717 37.5625 78.6667V53.6667C37.5625 52.5616 37.9378 51.5018 38.6059 50.7204C39.274 49.939 40.1802 49.5 41.125 49.5H45.3002C48.1333 49.4982 50.8498 48.1808 52.8527 45.8375L55.8096 42.3875C56.4758 41.6081 57.3789 41.1691 58.3212 41.1667H66.6717C67.6164 41.1669 68.5224 41.606 69.1904 42.3875L72.1401 45.8375C73.1327 46.9988 74.3113 47.92 75.6084 48.5484C76.9055 49.1768 78.2958 49.5002 79.6998 49.5H83.875C84.8198 49.5 85.726 49.939 86.3941 50.7204C87.0622 51.5018 87.4375 52.5616 87.4375 53.6667V78.6667ZM41.125 45.3333C39.2353 45.3333 37.4231 46.2113 36.0869 47.7741C34.7507 49.3369 34 51.4565 34 53.6667V78.6667C34 80.8768 34.7507 82.9964 36.0869 84.5592C37.4231 86.122 39.2353 87 41.125 87H83.875C85.7647 87 87.5769 86.122 88.9131 84.5592C90.2493 82.9964 91 80.8768 91 78.6667V53.6667C91 51.4565 90.2493 49.3369 88.9131 47.7741C87.5769 46.2113 85.7647 45.3333 83.875 45.3333H79.6998C77.8102 45.3329 75.9983 44.4546 74.6624 42.8917L71.7126 39.4417C70.3767 37.8788 68.5648 37.0005 66.6752 37H58.3248C56.4352 37.0005 54.6233 37.8788 53.2874 39.4417L50.3376 42.8917C49.0017 44.4546 47.1898 45.3329 45.3002 45.3333H41.125Z" fill="black"/>
<path d="M62.625 75C60.3458 75 58.1599 73.9025 56.5483 71.949C54.9367 69.9955 54.0312 67.346 54.0312 64.5833C54.0312 61.8207 54.9367 59.1711 56.5483 57.2176C58.1599 55.2641 60.3458 54.1667 62.625 54.1667C64.9042 54.1667 67.0901 55.2641 68.7017 57.2176C70.3133 59.1711 71.2188 61.8207 71.2188 64.5833C71.2188 67.346 70.3133 69.9955 68.7017 71.949C67.0901 73.9025 64.9042 75 62.625 75ZM62.625 79.1667C65.8159 79.1667 68.8761 77.6302 71.1324 74.8953C73.3887 72.1604 74.6562 68.4511 74.6562 64.5833C74.6562 60.7156 73.3887 57.0063 71.1324 54.2714C68.8761 51.5365 65.8159 50 62.625 50C59.4341 50 56.3739 51.5365 54.1176 54.2714C51.8613 57.0063 50.5938 60.7156 50.5938 64.5833C50.5938 68.4511 51.8613 72.1604 54.1176 74.8953C56.3739 77.6302 59.4341 79.1667 62.625 79.1667ZM45.4375 56.25C45.4375 56.8025 45.2564 57.3324 44.9341 57.7231C44.6118 58.1138 44.1746 58.3333 43.7188 58.3333C43.2629 58.3333 42.8257 58.1138 42.5034 57.7231C42.1811 57.3324 42 56.8025 42 56.25C42 55.6975 42.1811 55.1676 42.5034 54.7769C42.8257 54.3862 43.2629 54.1667 43.7188 54.1667C44.1746 54.1667 44.6118 54.3862 44.9341 54.7769C45.2564 55.1676 45.4375 55.6975 45.4375 56.25Z" fill="black"/>
</svg>
