<svg width="40" height="40" viewBox="0 0 40 40" fill="none" xmlns="http://www.w3.org/2000/svg">
<path d="M40 7.23312C39.7325 7.79798 39.2345 8.51148 38.5061 9.37358C37.7778 10.2357 36.8785 10.9938 35.8082 11.6478C35.838 11.8857 35.8603 12.1086 35.8751 12.3167C35.9906 15.5207 35.2231 18.8449 34.1583 21.6144C32.0944 26.7635 28.9318 30.9076 24.4147 33.7214C19.7042 36.4233 14.2183 36.998 9.16387 36.5085C5.80833 36.1231 2.5011 35.0274 0 32.9633C4.57443 33.5101 8.8435 31.954 12.2185 29.4404C8.46943 29.5353 5.74547 26.8233 4.45933 23.6879C5.0391 23.8399 5.6456 23.8215 6.19847 23.7771C6.879 23.7132 7.525 23.6494 8.16057 23.5096C5.77 22.7383 3.67827 21.3204 2.58643 19.184C1.946 17.8304 1.65683 16.5413 1.65 15.0815C2.77017 15.6712 4.1176 16.246 5.35123 16.1963C3.48817 14.618 1.99457 12.601 1.7169 10.2877C1.5416 8.35882 2.02427 6.59808 2.72027 4.95882C5.50717 8.02165 8.6341 10.5422 12.2409 12.0937C14.7075 13.1038 17.1671 13.6439 19.7102 13.6544C19.4167 11.3829 19.6449 9.18612 20.7136 7.32222C21.9713 5.31828 23.8062 4.15562 25.8641 3.57638C28.8087 2.82132 31.6807 3.88788 33.4896 5.93982C35.4403 5.72912 37.3089 4.86372 38.7961 3.97772C38.1642 5.89138 36.9337 7.79412 35.1395 8.70458C36.8477 8.38832 38.4778 7.88262 40 7.23312Z" fill="white"/>
</svg>
